<?xml version="1.0" encoding="UTF-8" standalone="no"?>
<!-- Created with Inkscape (http://www.inkscape.org/) -->

<svg
   width="351.50699"
   height="444.16199"
   viewBox="0 0 93.002895 117.51786"
   version="1.1"
   id="svg1412"
   xmlns="http://www.w3.org/2000/svg"
   xmlns:svg="http://www.w3.org/2000/svg">
  <defs
     id="defs1409" />
  <g
     id="layer1"
     transform="translate(5.4359932,6.6370508)">
    <g
       id="g4259">
      <path
         d="m 83.400843,3.163555 c 0,0 3.417857,2.326614 3.417857,9.910413 V 91.88372 L 81.300714,87.278532 V 26.436555 l -1.853055,1.626571 V 85.720593 L 74.300283,81.431114 V 31.631973 l -1.859918,1.050064 V 79.880038 L 67.142,75.453295 V 35.139051 l -1.853055,0.686317 V 73.902219 L 59.770958,69.297034 V 37.438212 l -1.859918,0.377474 v 29.923409 l -5.579755,-4.653227 0.02059,-24.721128 h -0.473559 l -3.802195,22.895525 14.961705,15.606843 h -4.111037 l 6.073903,9.443718 c 1.324591,-0.658864 6.073903,-3.019794 8.427969,-4.392427 l 2.690362,2.656045 c 0.2608,1.201055 0.219621,3.980637 0.219621,3.980637 0,0.0755 -0.04804,0.09609 -0.102948,0.04804 l -2.395245,-2.031497 -0.03432,0.507874 c -1.90796,0.446106 -4.536553,1.159876 -5.902324,1.53735 0.782402,0.528464 2.106993,1.386362 3.7267,2.312892 1.654024,0.94025 3.610026,1.96286 5.607208,2.76585 -0.01373,0.0686 -0.0755,0.36375 -0.253937,0.83731 -0.315706,0.85103 -0.960844,2.27171 -2.264846,4.04241 l -1.194191,1.57166 c -0.04118,0.0549 -0.06863,0.048 -0.06863,-0.0275 l 0.09608,-4.39929 -1.503034,1.11869 c -2.175624,-2.48446 -4.94148,-4.78362 -6.259208,-5.83369 0.15099,2.01777 0.507874,6.69845 0.809854,9.6153 0,0 -1.372634,1.18733 -4.968933,2.46388 0,0 -0.09609,0.0343 -0.06177,-0.0686 l 0.700043,-1.37263 v 0 c 0,0 0.514738,-1.0432 0.82358,-2.18249 l -2.47074,0.2059 c 0.452969,-1.75011 1.557939,-6.16999 1.894234,-9.07311 -0.08922,0.0343 -0.178442,0.0686 -0.28139,0.11668 -1.173601,0.49414 -3.260004,1.38636 -5.298365,2.35406 l -0.0069,-0.007 h -0.0069 l -0.583369,-0.45983 -0.336295,-0.27453 0.144126,3.55512 c 0,0.0686 -0.04118,0.0961 -0.08922,0.048 0,0 -2.223666,-1.96973 -2.807036,-2.4776 0.0069,-0.82358 -0.205895,-4.536556 -0.205895,-4.536556 2.841352,-0.377474 6.533736,-1.070654 8.167169,-1.38636 l -6.904346,-6.437651 v 0.06863 4.454196 c 0,0 -6.259208,-9.539803 -7.048472,-10.685952 -0.08922,0.960844 -0.535328,6.979841 0.446105,13.609661 1.098107,7.446542 3.500216,13.925372 12.511554,12.847852 -3.438447,7.83774 -12.003679,4.75618 -13.513576,2.89626 -2.690362,4.77676 -5.607208,6.58177 -5.641523,6.60236 -0.02745,-0.0206 -2.937436,-1.8256 -5.627798,-6.60236 -1.509896,1.85992 -10.068266,4.94148 -13.513576,-2.89626 9.004476,1.07752 11.406584,-5.40131 12.504691,-12.847852 0.981433,-6.62982 0.535327,-12.648817 0.446106,-13.609661 -0.782401,1.146149 -7.04161,10.685952 -7.04161,10.685952 v -4.522828 l -6.911209,6.437651 c 1.633434,0.315706 5.325818,1.008886 8.174032,1.38636 0,0 -0.219621,3.712978 -0.212758,4.536558 -0.583369,0.50787 -2.807036,2.4776 -2.807036,2.4776 -0.04118,0.0481 -0.08922,0.0206 -0.08922,-0.048 l 0.15099,-3.55512 -0.343158,0.27453 -0.58337,0.45983 v 0 l -0.01373,0.007 c -2.031498,-0.9677 -4.124764,-1.85992 -5.298365,-2.35406 -0.09608,-0.0481 -0.192169,-0.0824 -0.274527,-0.11668 0.329432,2.90312 1.434402,7.323 1.887371,9.07311 l -2.463877,-0.2059 c 0.30198,1.13929 0.82358,2.18249 0.82358,2.18249 h 0.0069 l 0.686317,1.37263 c 0.03432,0.10295 -0.0549,0.0686 -0.0549,0.0686 -3.603163,-1.27655 -4.975796,-2.46388 -4.975796,-2.46388 0.301979,-2.91685 0.665727,-7.59753 0.82358,-9.6153 -1.331455,1.05007 -4.097311,3.34923 -6.272935,5.83369 l -1.496171,-1.11869 0.09608,4.39929 c 0,0.0755 -0.03432,0.0824 -0.0755,0.0275 L 7.411804,98.57531 C 6.107802,96.80461 5.462664,95.38393 5.153822,94.5329 4.975379,94.05934 4.906748,93.76423 4.893021,93.69559 c 1.997182,-0.80299 3.953185,-1.8256 5.607208,-2.76585 1.619707,-0.92653 2.951162,-1.78443 3.733563,-2.312894 -1.36577,-0.377474 -4.001227,-1.091244 -5.909187,-1.53735 L 8.290285,86.571622 5.89504,88.603119 c -0.05491,0.04804 -0.09609,0.02745 -0.102948,-0.04804 0,0 -0.04118,-2.779582 0.219622,-3.980637 l 2.690361,-2.656045 c 2.354067,1.372633 7.110241,3.733563 8.434833,4.392427 l 6.080766,-9.443718 h -4.1179 L 34.061534,61.260265 30.252476,38.36474 h -0.473558 l 0.02745,24.721128 -5.586618,4.653227 V 37.815686 l -1.853055,-0.377474 v 31.858822 l -5.517986,4.605185 V 35.825368 L 14.988792,35.139051 V 75.453295 L 9.69729,79.880038 V 32.682037 L 7.830509,31.631973 V 81.431114 L 2.683134,85.720593 V 28.063126 L 0.830078,26.436555 V 87.278532 L -4.6810448,91.88372 V 13.073968 c 0,-7.583799 3.4109941,-9.910413 3.4109941,-9.910413 0,0 -4.1110372,-1.90796 -4.1659425,-5.7993763 2.1207186,1.3314545 4.6326378,2.0040448 6.4925562,1.6677496 5.113059,-0.9402539 13.561618,-5.3669967 18.887436,4.5159637 -2.628593,6.91121 -9.539802,7.803421 -13.746924,2.779583 -2.738404,3.87769 -1.79815,11.035973 5.93664,15.888232 7.288683,4.57087 16.23139,4.824807 17.631476,4.797354 0.130401,-1.413812 0.267664,-6.108219 4.44047,-10.109445 1.866781,-1.805013 3.42472,-5.52485 3.362951,-8.023043 0,0 -6.067039,0.706906 -8.633864,-2.683498 -0.0069,-0.02059 -0.0069,-0.02745 0,-0.04118 0.0069,-0.0069 0.02059,-0.01373 0.02745,-0.01373 0.590232,0.116673 0.981433,0.150989 1.475581,0.171579 -0.97457,-0.425517 -4.454196,-1.64716 -5.408176,-4.790491 -0.0069,-0.04118 0.02745,-0.06177 0.04804,-0.04804 4.605185,2.875667 9.436855,3.493352 11.200689,3.699247 0.253937,0.02745 -0.02059,-0.466695 -0.04804,-0.507874 C 35.091006,2.861573 33.807594,2.250751 32.537908,2.250751 31.014285,2.257651 30.492684,3.479258 30.492684,3.479258 29.765188,2.943931 28.255292,1.72915 28.16607,-1.3592752 c -0.09608,-3.3423624 2.244256,-4.9208909 4.845396,-4.8728487 1.159876,0.013726 2.354067,0.2745267 3.157057,0.7069062 0.02059,-0.6382745 0.295117,-1.1118331 0.295117,-1.1118331 0,0 2.203076,0.7137694 4.639501,1.7363813 3.822784,1.6059812 7.645568,3.1296043 10.740856,3.1296043 0.144127,0 0.233348,0.1166738 0.144127,0.2264845 -1.503034,1.8187397 -4.172806,2.4021087 -4.172806,2.4021087 4.13849,9.780013 4.39929,20.960112 4.570869,26.148667 v 0 c 0.0069,0 0.0069,0 0.0069,0.0069 1.489307,0.02059 10.363382,-0.253937 17.604023,-4.797354 7.73479,-4.852259 8.675044,-12.010542 5.93664,-15.888232 -4.207121,5.023838 -11.104604,4.131627 -13.746924,-2.779583 5.325818,-9.8829604 13.774377,-5.4562176 18.887436,-4.5159637 1.866782,0.3362952 4.371838,-0.3362951 6.492556,-1.6677496 -0.0549,3.8914163 -4.165942,5.7993763 -4.165942,5.7993763"
         style="display:inline;fill:#000000;fill-opacity:1;fill-rule:nonzero;stroke:none;stroke-width:0.686317"
         id="path845" />
      <g
         id="g1006"
         transform="matrix(0.68631672,0,0,-0.68631672,37.167117,-3.7037304)">
        <path
           d="m 0,0 c -0.08,-0.02 -6.65,-1.34 -11.99,-2.09 l 0.07,-1.48 0.93,0.82 3.48,-2.81 c 4.22,1.98 8.38,3.67 8.43,3.69 l 0.17,0.08 c 0.36,0.14 0.74,-0.15 0.72,-0.53 L 1.79,-2.51 C 1.53,-6.07 0.21,-11.78 -0.65,-15.22 l 4.5,0.37 1.03,-1.04 c -0.52,5.6 -1.06,13.08 -1.07,13.17 l -0.03,0.44 c -0.03,0.37 0.4,0.61 0.7,0.39 l 0.35,-0.27 c 0.06,-0.03 5.36,-4.03 9.66,-8.69 1.97,1.61 2.6,2.18 2.6,2.18 0,0 1.23,0.16 2.43,0.31 -6.93,3.1 -13.04,7.45 -13.11,7.5 L 6.15,-0.67 C 5.82,-0.44 5.91,0.08 6.31,0.19 l 0.3,0.09 c 0.06,0.01 5.14,1.45 9.02,2.39 l 0.25,3.91 1.2,0.01 c 0,0 -0.52,0.53 -0.99,0.99 C 11.84,5.19 4.45,1.56 4.09,1.38 v 0 C 3.79,1.24 3.45,1.34 3.28,1.61 l -9.6,14.91 h -5.22 V 12.14 L 0.52,0.89 C 0.81,0.62 0.67,0.14 0.28,0.06 Z m -10.97,-4.04 -1.17,-1.04 0.05,-2.08 2.15,-1.91 -0.17,4.35 z M 5.18,-17.73 c -0.81,0.91 -1.69,1.86 -1.69,1.86 l -1.11,-0.1 c 0,0 -0.04,-0.15 -0.09,-0.32 -0.47,-1.96 -1.27,-3.55 -1.27,-3.55 0,0 2.97,1.15 4.16,2.11 m 12.39,8.12 -0.18,-4.9 c 0,0 2.42,3.37 3.02,5.27 -0.05,-0.01 -2.84,-0.37 -2.84,-0.37 m -0.74,15.2 1.84,-0.12 c 0,0 0.31,-0.35 0.66,-0.75 0.21,-1.33 0.23,-3.25 0.23,-3.25 L 16.68,3.91 Z M -61.94,0.06 c -0.39,0.08 -0.53,0.56 -0.24,0.83 l 12.06,11.25 v 4.38 h -5.23 L -64.94,1.61 c -0.17,-0.27 -0.52,-0.37 -0.81,-0.23 v 0 c -0.36,0.18 -7.74,3.81 -12,6.2 -0.47,-0.46 -1,-0.99 -1,-0.99 l 1.2,-0.01 0.26,-3.91 c 3.87,-0.94 8.96,-2.38 9.02,-2.39 l 0.3,-0.09 c 0.4,-0.11 0.49,-0.63 0.15,-0.86 l -0.25,-0.19 c -0.07,-0.05 -6.2,-4.4 -13.11,-7.5 1.2,-0.15 2.42,-0.31 2.42,-0.31 0,0 0.64,-0.57 2.6,-2.18 4.3,4.66 9.61,8.66 9.67,8.69 l 0.35,0.27 c 0.3,0.22 0.72,-0.02 0.7,-0.39 l -0.03,-0.44 c -0.01,-0.09 -0.55,-7.57 -1.07,-13.17 l 1.03,1.04 4.5,-0.37 c -0.87,3.44 -2.18,9.15 -2.44,12.71 l -0.02,0.19 c -0.02,0.38 0.36,0.67 0.72,0.53 l 0.17,-0.08 c 0.05,-0.02 4.21,-1.71 8.43,-3.69 l 3.48,2.81 0.93,-0.82 0.07,1.48 c -5.34,0.75 -11.92,2.07 -11.99,2.09 z m 10.39,-4.78 -0.18,-4.35 2.16,1.91 0.05,2.08 -1.17,1.04 z m -11.13,-15.12 c 0,0 -0.81,1.59 -1.28,3.55 -0.04,0.17 -0.08,0.32 -0.08,0.32 l -1.12,0.1 c 0,0 -0.87,-0.95 -1.68,-1.86 1.18,-0.96 4.16,-2.11 4.16,-2.11 m -19.39,10.6 c 0.6,-1.9 3.01,-5.27 3.01,-5.27 l -0.17,4.9 c 0,0 -2.79,0.36 -2.84,0.37 m 3.73,13.15 -2.88,-2.44 c 0,0 0.03,1.92 0.23,3.25 0.35,0.4 0.65,0.76 0.65,0.76 l 1.85,0.11 z m 36.88,115.34 c 1.78,0 3.95,0.27 4.41,0.47 0.29,0.12 0.13,0.19 -0.03,0.21 -6.85,0.71 -11.35,2.31 -14.96,4.23 1.51,-1.77 4.45,-3.57 8.7,-4.74 0.45,-0.13 1.13,-0.17 1.88,-0.17 m 9.18,-1.66 c -1.21,-0.48 -4.44,-0.92 -6.1,-0.92 -3.91,0 -6.51,1.45 -6.91,1.62 4.28,-0.5 8.51,0.03 10.03,0.86 -1.99,5.34 -5.37,7.43 -8,7.43 -1.23,0 -2.31,-0.46 -3,-1.26 -1.42,1.2 -2.03,3.64 -2.06,5.15 -0.09,4.53 2.93,5.84 5.76,5.84 2,0 3.92,-0.66 4.56,-1.28 -0.04,-2.94 0.72,-5.46 2.42,-8.52 1.4,-2.52 3,-4.62 3.3,-8.92"
           style="fill:#ff0000;fill-opacity:1;fill-rule:nonzero;stroke:none"
           id="path849"
           transform="translate(36.510998,-133.938)" />
        <path
           d="m 0,0 c 0.34,-2.52 1.15,-4.55 1.39,-4.62 0.36,-0.11 2.7,1.77 3.1,2.39 0.14,0.21 -1.46,0.94 -1.61,0.66 C 2.48,-2.29 1.97,-3.33 1.72,-3.75 1.65,-3.88 1.51,-3.86 1.49,-3.69 1.39,-2.14 1.33,-1.25 1.27,-0.55 1.25,-0.37 -0.06,0.45 0,0"
           style="fill:#ffffff;fill-opacity:1;fill-rule:nonzero;stroke:none"
           id="path853" />
      </g>
    </g>
  </g>
</svg>
