<?xml version="1.0" encoding="UTF-8" standalone="no"?>
<svg version="1.1" height="410" width="700" xmlns="http://www.w3.org/2000/svg" xmlns:xlink="http://www.w3.org/1999/xlink">

<rect fill="#214395" x="0" y="0" width="700" height="410"/>
<path fill="white" 
	d="m 437,152 c 9.62,-12.461 17.83,-41.394 3.55,-62.129 c -9.35,-13.554 -24.66,-21.074 -40.08,-24.609 
	c -41.8,-9.57 -85.03,3.75 -122.34,23.359 c -31.62,16.614 -63.64,39.368 -84.59,69.688 
	c -7.03,10.145 -13.02,21.66 -16.64,36.145 c -3.54,14.097 -4.9,28.804 -2.88,43.281 
	c 10.75,76.668 93.14,104.676 158.06,102.515 c 44.52,-1.453 89.51,-13.914 128.62,-36.179 
	c 34.87,-19.864 68.97,-47.532 90.64,-82.742 c 0.97,-1.536 8.65,-14.961 11.61,-13.032 
	c 2.93,1.899 -5.25,15.012 -6.19,16.543 c -22.77,36.992 -52.24,68.711 -87.31,93.266 
	c -36.98,25.906 -79.74,42.945 -123.98,49.098 c -37.89,5.277 -78.13,3.832 -114.04,-10.887 
	c -30.12,-12.356 -56.5,-33.723 -69.26,-65.363 c -11.65,-28.895 -8.84,-61.25 2.07,-89.918 
	c 28.96,-76.106 95.9,-135.481 170.55,-159.426 c 34.16,-10.969 81.68,-17.11 112.39,7.121 
	c 36.97,29.168 21.04,79.48 -10.18,103.269 
	c -13.96,16.575 -36.48,31.68 -64.14,41.27 c -17.86,6.211 -35.66,9.363 -51.91,9.68 
	l 12.66,-24.458 c 38.72,0.586 88.52,-13.894 103.39,-26.492 z"/>

<path fill="#fbc707" id="star" d="m 350,87.3962 
	l -3.74,11.57 h -12.09 l 9.79,7.129 l -3.73,11.543 l 9.77,-7.141 
	l 9.77,7.141 l -3.73,-11.543 l 9.79,-7.129 h -12.09 l -3.74,-11.57 z"/>
<use xlink:href="#star" transform="translate(0,201.758)"/>

<g id="star_rigth_side">
<use xlink:href="#star" transform="translate(50.8,13.496)"/>
<use xlink:href="#star" transform="translate(86.91,50.449)"/>
<use xlink:href="#star" transform="translate(100.34,100.906)"/>
<use xlink:href="#star" transform="translate(86.91,151.348)"/>
<use xlink:href="#star" transform="translate(50.8,188.274)"/>
</g>
<use xlink:href="#star_rigth_side" transform="scale(-1,1)translate(-700,0)"/>

</svg>