<?xml version="1.0" encoding="utf-8"?>
<!-- Generator: Adobe Illustrator 16.0.0, SVG Export Plug-In . SVG Version: 6.00 Build 0)  -->
<!DOCTYPE svg PUBLIC "-//W3C//DTD SVG 1.1//EN" "http://www.w3.org/Graphics/SVG/1.1/DTD/svg11.dtd">
<svg version="1.1"
	 id="svg2" xmlns:inkscape="http://www.inkscape.org/namespaces/inkscape" xmlns:cc="http://creativecommons.org/ns#" xmlns:rdf="http://www.w3.org/1999/02/22-rdf-syntax-ns#" xmlns:dc="http://purl.org/dc/elements/1.1/" xmlns:sodipodi="http://sodipodi.sourceforge.net/DTD/sodipodi-0.dtd" xmlns:svg="http://www.w3.org/2000/svg" sodipodi:docname="Blason_Vide_3D[1].svg" inkscape:export-ydpi="144" inkscape:version="0.48.1 r9760" inkscape:export-filename="/Users/olivier/Desktop/Blason Rouge/Blason_Vide_3D.png" inkscape:export-xdpi="144" sodipodi:version="0.32" inkscape:output_extension="org.inkscape.output.svg.inkscape"
	 xmlns="http://www.w3.org/2000/svg" xmlns:xlink="http://www.w3.org/1999/xlink" x="0px" y="0px" width="600px" height="660px"
	 viewBox="0 0 600 660" enable-background="new 0 0 600 660" xml:space="preserve">
<sodipodi:namedview  height="660px" id="base" gridtolerance="10.0" guidetolerance="10.0" objecttolerance="10.0" borderopacity="1.0" bordercolor="#666666" pagecolor="#f2efe7" showgrid="false" inkscape:zoom="0.49833333" inkscape:cx="300" inkscape:cy="329.66162" inkscape:current-layer="layer3" inkscape:window-y="0" inkscape:window-x="0" inkscape:window-height="679" inkscape:window-width="1280" inkscape:pageopacity="1" inkscape:pageshadow="2" inkscape:window-maximized="0">
	</sodipodi:namedview>
<desc  id="desc4">Flag of Canton of Valais (Wallis)</desc>
<defs>
	
	
		<inkscape:perspective  inkscape:vp_z="600 : 330 : 1" inkscape:vp_y="0 : 1000 : 0" inkscape:vp_x="0 : 330 : 1" sodipodi:type="inkscape:persp3d" id="perspective22" inkscape:persp3d-origin="300 : 220 : 1">
		</inkscape:perspective>
	
		<inkscape:perspective  inkscape:vp_z="600 : 330 : 1" inkscape:vp_y="0 : 1000 : 0" inkscape:vp_x="0 : 330 : 1" sodipodi:type="inkscape:persp3d" id="perspective32" inkscape:persp3d-origin="300 : 220 : 1">
		</inkscape:perspective>
	
		<inkscape:perspective  inkscape:vp_z="744.09448 : 526.18109 : 1" inkscape:vp_y="0 : 1000 : 0" inkscape:vp_x="0 : 526.18109 : 1" sodipodi:type="inkscape:persp3d" id="perspective13892" inkscape:persp3d-origin="372.04724 : 350.78739 : 1">
		</inkscape:perspective>
	
		<inkscape:perspective  inkscape:vp_z="600 : 330 : 1" inkscape:vp_y="0 : 1000 : 0" inkscape:vp_x="0 : 330 : 1" sodipodi:type="inkscape:persp3d" id="perspective97" inkscape:persp3d-origin="300 : 220 : 1">
		</inkscape:perspective>
	
		<inkscape:perspective  inkscape:vp_z="438 : 240 : 1" inkscape:vp_y="0 : 1000 : 0" inkscape:vp_x="0 : 240 : 1" sodipodi:type="inkscape:persp3d" id="perspective153" inkscape:persp3d-origin="219 : 160 : 1">
		</inkscape:perspective>
	
		<inkscape:perspective  inkscape:vp_z="744.09448 : 526.18109 : 1" inkscape:vp_y="0 : 1000 : 0" inkscape:vp_x="0 : 526.18109 : 1" sodipodi:type="inkscape:persp3d" id="perspective9901" inkscape:persp3d-origin="372.04724 : 350.78739 : 1">
		</inkscape:perspective>
	
		<inkscape:perspective  inkscape:vp_z="744.09448 : 526.18109 : 1" inkscape:vp_y="0 : 1000 : 0" inkscape:vp_x="0 : 526.18109 : 1" sodipodi:type="inkscape:persp3d" id="perspective14393" inkscape:persp3d-origin="372.04724 : 350.78739 : 1">
		</inkscape:perspective>
	
		<inkscape:perspective  inkscape:vp_z="744.09448 : 526.18109 : 1" inkscape:vp_y="0 : 1000 : 0" inkscape:vp_x="0 : 526.18109 : 1" sodipodi:type="inkscape:persp3d" id="perspective42068" inkscape:persp3d-origin="372.04724 : 350.78739 : 1">
		</inkscape:perspective>
	
		<inkscape:perspective  inkscape:vp_z="744.09448 : 526.18109 : 1" inkscape:vp_y="0 : 1000 : 0" inkscape:vp_x="0 : 526.18109 : 1" sodipodi:type="inkscape:persp3d" id="perspective41980" inkscape:persp3d-origin="372.04724 : 350.78739 : 1">
		</inkscape:perspective>
	
		<inkscape:perspective  inkscape:vp_z="744.09448 : 526.18109 : 1" inkscape:vp_y="0 : 1000 : 0" inkscape:vp_x="0 : 526.18109 : 1" sodipodi:type="inkscape:persp3d" id="perspective17821" inkscape:persp3d-origin="372.04724 : 350.78739 : 1">
		</inkscape:perspective>
	
		<inkscape:perspective  inkscape:vp_z="744.09448 : 526.18109 : 1" inkscape:vp_y="0 : 1000 : 0" inkscape:vp_x="0 : 526.18109 : 1" sodipodi:type="inkscape:persp3d" id="perspective8417" inkscape:persp3d-origin="372.04724 : 350.78739 : 1">
		</inkscape:perspective>
	
		<inkscape:perspective  inkscape:vp_z="744.09448 : 526.18109 : 1" inkscape:vp_y="0 : 1000 : 0" inkscape:vp_x="0 : 526.18109 : 1" sodipodi:type="inkscape:persp3d" id="perspective8367" inkscape:persp3d-origin="372.04724 : 350.78739 : 1">
		</inkscape:perspective>
	
		<inkscape:perspective  inkscape:vp_z="744.09448 : 526.18109 : 1" inkscape:vp_y="0 : 1000 : 0" inkscape:vp_x="0 : 526.18109 : 1" sodipodi:type="inkscape:persp3d" id="perspective7204" inkscape:persp3d-origin="372.04724 : 350.78739 : 1">
		</inkscape:perspective>
	
		<inkscape:perspective  inkscape:vp_z="744.09448 : 526.18109 : 1" inkscape:vp_y="0 : 1000 : 0" inkscape:vp_x="0 : 526.18109 : 1" sodipodi:type="inkscape:persp3d" id="perspective33480" inkscape:persp3d-origin="372.04724 : 350.78739 : 1">
		</inkscape:perspective>
	
		<inkscape:perspective  inkscape:vp_z="744.09448 : 526.18109 : 1" inkscape:vp_y="0 : 1000 : 0" inkscape:vp_x="0 : 526.18109 : 1" sodipodi:type="inkscape:persp3d" id="perspective10262" inkscape:persp3d-origin="372.04724 : 350.78739 : 1">
		</inkscape:perspective>
	
		<inkscape:perspective  inkscape:vp_z="744.09448 : 526.18109 : 1" inkscape:vp_y="0 : 1000 : 0" inkscape:vp_x="0 : 526.18109 : 1" sodipodi:type="inkscape:persp3d" id="perspective33797" inkscape:persp3d-origin="372.04724 : 350.78739 : 1">
		</inkscape:perspective>
	
		<inkscape:perspective  inkscape:vp_z="744.09448 : 526.18109 : 1" inkscape:vp_y="0 : 1000 : 0" inkscape:vp_x="0 : 526.18109 : 1" sodipodi:type="inkscape:persp3d" id="perspective33471" inkscape:persp3d-origin="372.04724 : 350.78739 : 1">
		</inkscape:perspective>
	
		<inkscape:perspective  inkscape:vp_z="744.09448 : 526.18109 : 1" inkscape:vp_y="0 : 1000 : 0" inkscape:vp_x="0 : 526.18109 : 1" sodipodi:type="inkscape:persp3d" id="perspective33461" inkscape:persp3d-origin="372.04724 : 350.78739 : 1">
		</inkscape:perspective>
	
		<inkscape:perspective  inkscape:vp_z="744.09448 : 526.18109 : 1" inkscape:vp_y="0 : 1000 : 0" inkscape:vp_x="0 : 526.18109 : 1" sodipodi:type="inkscape:persp3d" id="perspective10275" inkscape:persp3d-origin="372.04724 : 350.78739 : 1">
		</inkscape:perspective>
	
		<inkscape:perspective  inkscape:vp_z="744.09448 : 526.18109 : 1" inkscape:vp_y="0 : 1000 : 0" inkscape:vp_x="0 : 526.18109 : 1" sodipodi:type="inkscape:persp3d" id="perspective10157" inkscape:persp3d-origin="372.04724 : 350.78739 : 1">
		</inkscape:perspective>
	
		<inkscape:perspective  inkscape:vp_z="744.09448 : 526.18109 : 1" inkscape:vp_y="0 : 1000 : 0" inkscape:vp_x="0 : 526.18109 : 1" sodipodi:type="inkscape:persp3d" id="perspective5217" inkscape:persp3d-origin="372.04724 : 350.78739 : 1">
		</inkscape:perspective>
	
		<inkscape:perspective  inkscape:vp_z="744.09448 : 526.18109 : 1" inkscape:vp_y="0 : 1000 : 0" inkscape:vp_x="0 : 526.18109 : 1" sodipodi:type="inkscape:persp3d" id="perspective11874" inkscape:persp3d-origin="372.04724 : 350.78739 : 1">
		</inkscape:perspective>
	
		<inkscape:perspective  inkscape:vp_z="744.09448 : 526.18109 : 1" inkscape:vp_y="0 : 1000 : 0" inkscape:vp_x="0 : 526.18109 : 1" sodipodi:type="inkscape:persp3d" id="perspective8299" inkscape:persp3d-origin="372.04724 : 350.78739 : 1">
		</inkscape:perspective>
	
		<inkscape:perspective  inkscape:vp_z="744.09448 : 526.18109 : 1" inkscape:vp_y="0 : 1000 : 0" inkscape:vp_x="0 : 526.18109 : 1" sodipodi:type="inkscape:persp3d" id="perspective12112" inkscape:persp3d-origin="372.04724 : 350.78739 : 1">
		</inkscape:perspective>
	
		<inkscape:perspective  inkscape:vp_z="744.09448 : 526.18109 : 1" inkscape:vp_y="0 : 1000 : 0" inkscape:vp_x="0 : 526.18109 : 1" sodipodi:type="inkscape:persp3d" id="perspective9256" inkscape:persp3d-origin="372.04724 : 350.78739 : 1">
		</inkscape:perspective>
	
		<inkscape:perspective  inkscape:vp_z="744.09448 : 526.18109 : 1" inkscape:vp_y="0 : 1000 : 0" inkscape:vp_x="0 : 526.18109 : 1" sodipodi:type="inkscape:persp3d" id="perspective7683" inkscape:persp3d-origin="372.04724 : 350.78739 : 1">
		</inkscape:perspective>
	
		<inkscape:perspective  inkscape:vp_z="744.09448 : 526.18109 : 1" inkscape:vp_y="0 : 1000 : 0" inkscape:vp_x="0 : 526.18109 : 1" sodipodi:type="inkscape:persp3d" id="perspective6173" inkscape:persp3d-origin="372.04724 : 350.78739 : 1">
		</inkscape:perspective>
	
		<inkscape:perspective  inkscape:vp_z="744.09448 : 526.18109 : 1" inkscape:vp_y="0 : 1000 : 0" inkscape:vp_x="0 : 526.18109 : 1" sodipodi:type="inkscape:persp3d" id="perspective6678" inkscape:persp3d-origin="372.04724 : 350.78739 : 1">
		</inkscape:perspective>
	
		<inkscape:perspective  inkscape:vp_z="744.09448 : 526.18109 : 1" inkscape:vp_y="6.123234e-14 : 1000 : 0" inkscape:vp_x="0 : 526.18109 : 1" sodipodi:type="inkscape:persp3d" id="perspective7908" inkscape:persp3d-origin="372.04724 : 350.78739 : 1">
		</inkscape:perspective>
	
		<inkscape:perspective  inkscape:vp_z="600 : 330 : 1" inkscape:vp_y="0 : 1000 : 0" inkscape:vp_x="0 : 330 : 1" sodipodi:type="inkscape:persp3d" id="perspective90" inkscape:persp3d-origin="300 : 220 : 1">
		</inkscape:perspective>
</defs>
<path id="path2855" sodipodi:nodetypes="cccccc" fill="#FFFFFF" d="M300,658.5c0,0,298.5-112.317,298.5-397.771
	c0-285.451,0-258.552,0-258.552H1.5v258.552C1.5,546.18,300,658.5,300,658.5z"/>
<g id="g12543" transform="matrix(0.413177,0,0,0.413177,152.2742,105.8855)">
	
		<path id="path6333" inkscape:connector-curvature="0" fill="#FCEF3C" stroke="#000000" stroke-width="2" stroke-linejoin="round" d="
		M-54.398,895.744c0.092-0.579,0.898-23.579,0.884-23.385c-0.014,0.201-29.915-0.787-35.07,0.312
		c-8.804,1.881-13.834,10.905-12.435,26.753c0.806,5.259,1.34,10.782,6.06,12.125c4.784-22.007,10.591-17.091,15.661-17.015
		C-73.162,894.626-54.493,896.318-54.398,895.744L-54.398,895.744z"/>
	
		<path id="path8112" inkscape:connector-curvature="0" fill="#FCEF3C" stroke="#000000" stroke-width="2" stroke-linejoin="round" d="
		M9.997,800.193l-15.715,15.713l-16.07-10.714c-5.259-5.068-14.418-6.282-26.429-3.571c12.29-23.851,38.058-22.588,44.286-13.928
		L9.997,800.193z"/>
	
		<path id="path9884" inkscape:connector-curvature="0" fill="#FCEF3C" stroke="#000000" stroke-width="2" stroke-linejoin="round" d="
		M5.711,967.331c13.002-3.153,4.819-38.552-12.501-25.713c-17.32,12.841-36.335,21.95-15.715,51.785
		C-21.46,971.85-7.293,970.489,5.711,967.331z"/>
	
		<path id="path11656" inkscape:connector-curvature="0" fill="#FCEF3C" stroke="#000000" stroke-width="2" stroke-linejoin="round" d="
		M162.854,887.689c30.407-17.459,47.33-13.73,51.074,10.716c-16.162-7.776-26.675-3.011-34.288,8.216"/>
</g>
<path id="path5446" inkscape:connector-curvature="0" fill="#FCEF3C" stroke="#000000" stroke-width="2" stroke-linejoin="round" d="
	M253.796,397.107l-14.166-7.084l-51.353,70.534c-3.499-5.047-6.146-12.648-9.148-19.187l-24.618-8.682
	c-3.744,2.574-7.429,7.015-10.625,12.396c2.239,2.396,5.012,3.19,7.796,3.959c3.738-2.034,7.478-2.813,11.215-2.064
	c4.572,6.072,6.006,10.576,8.56,15.642c-6.929-1.812-15.488-5.308-26.721-9.812c-6.191,3.649-12.902,8.385-20.658,9.431
	c0.687,1.369,1.118,2.706,1.361,4.021c0.808,4.358-0.475,8.462-1.5,12.596c1.762,3.733,4.461,2.444,6.271,3.123
	c10.648-8.693,11.286-10.41,16.821-10.623c11.124,0.286,14.839,1.398,21.474,2.188c-6.105,6.585-13.177,14.088-21.544,16.524
	c-1.187,1.936-1.061,4.304-0.59,6.788c7.113,4.754,3.856,7.461,3.714,11.179c0.813,1.1,3.152,1.18,5.606,1.184
	c5.794-8.981,9.104-8.854,13.403-12.357c3.062-3.455,3.989-7.712,7.099-10.046c10.566-7.934,19.955-10.563,28.439-9.435
	c10.217,4.115,16.185,6.211,23.488,6.49c0.249-1.472,1.683-0.984,0.921-4.479c-2.951-0.459-5.903-6.322-8.854-10.33
	c-7.107-0.055-14.763,0.981-19.219-4.376L253.796,397.107z"/>
<g id="g12559" transform="matrix(-0.413177,0,0,0.413177,447.4758,105.8855)">
	
		<path id="path12561" inkscape:connector-curvature="0" fill="#FCEF3C" stroke="#000000" stroke-width="2" stroke-linejoin="round" d="
		M-54.392,895.744c0.094-0.577,0.898-23.579,0.884-23.383c-0.014,0.201-29.913-0.787-35.068,0.312
		c-8.804,1.881-13.836,10.906-12.437,26.753c0.806,5.259,1.34,10.783,6.062,12.125c4.779-22.009,10.594-17.093,15.666-17.015
		c6.131,0.092,24.803,1.782,24.897,1.208H-54.392z"/>
	
		<path id="path12563" inkscape:connector-curvature="0" fill="#FCEF3C" stroke="#000000" stroke-width="2" stroke-linejoin="round" d="
		M10.005,800.195L-5.71,815.908l-16.072-10.714c-5.257-5.065-14.418-6.28-26.427-3.569c12.288-23.855,38.058-22.586,44.286-13.926
		L10.005,800.195z"/>
	
		<path id="path12565" inkscape:connector-curvature="0" fill="#FCEF3C" stroke="#000000" stroke-width="2" stroke-linejoin="round" d="
		M5.717,967.331c13.004-3.153,4.819-38.552-12.501-25.713c-17.32,12.841-36.33,21.95-15.713,51.785
		C-21.452,971.85-7.285,970.489,5.717,967.331z"/>
	
		<path id="path12567" inkscape:connector-curvature="0" fill="#FCEF3C" stroke="#000000" stroke-width="2" stroke-linejoin="round" d="
		M162.862,887.689c30.407-17.459,47.33-13.73,51.069,10.716c-16.159-7.776-26.675-3.011-34.286,8.216"/>
</g>
<path id="path12569" inkscape:connector-curvature="0" fill="#FCEF3C" stroke="#000000" stroke-width="2" stroke-linejoin="round" d="
	M345.95,397.107l14.166-7.084l51.353,70.535c3.499-5.047,6.146-12.648,9.148-19.187l24.617-8.681
	c3.744,2.573,7.43,7.016,10.625,12.396c-2.239,2.396-5.017,3.19-7.796,3.959c-3.738-2.034-7.479-2.813-11.215-2.065
	c-4.572,6.073-6.01,10.577-8.563,15.646c6.929-1.813,15.488-5.31,26.721-9.813c6.191,3.649,12.902,8.385,20.658,9.431
	c-0.687,1.369-1.119,2.706-1.362,4.021c-0.808,4.36,0.479,8.462,1.5,12.596c-1.761,3.733-4.461,2.444-6.271,3.124
	c-10.648-8.694-11.286-10.411-16.822-10.624c-11.122,0.287-14.838,1.398-21.473,2.188c6.104,6.585,13.178,14.088,21.544,16.524
	c1.188,1.936,1.062,4.306,0.591,6.788c-7.113,4.754-3.854,7.461-3.715,11.179c-0.813,1.1-3.152,1.18-5.606,1.184
	c-5.794-8.981-9.104-8.854-13.398-12.357c-3.063-3.455-3.989-7.711-7.103-10.045c-10.563-7.935-19.95-10.563-28.438-9.436
	c-10.217,4.118-16.188,6.211-23.487,6.493c-0.248-1.475-1.683-0.987-0.922-4.479c2.951-0.46,5.903-6.323,8.854-10.33
	c7.104-0.056,14.763,0.98,19.219-4.377L345.95,397.107L345.95,397.107z"/>
<path id="path14349" inkscape:connector-curvature="0" fill="#E20909" stroke="#000000" stroke-width="2" stroke-linejoin="round" d="
	M351.065,203.278l3.966-2.713c1.878,0.938,26.92-1.669,33.494-3.965c6.569-2.296,19.648-11.726,20.974-12.938
	c5.297-4.88,13.891-16.333,14.723-17.739c3.313-5.592,8.379-17.231,9.251-23.599c0.875-6.391,1.767-16.688,1.559-17.209
	c-0.209-0.521-0.782-2.418-2.78-3.015c-2.25-0.672-11.888-3.585-13.234-4.98c-1.073-1.116-12.333-10-14.055-16.003
	c-1.473-5.142-1.528-8.754-1.528-12.51c0-3.757,0.021-9.48,1.479-13.967c1.46-4.487,5.616-8.485,11.251-12.658
	c5.636-4.174,14.521-4.991,14.521-4.991l47.701,0.813c0.051,0.009,31.666-0.6,55.615-10.552
	c-16.123,45.504-52.961,36.557-58.764,39.165c50.454,15.681,73.961,16.786,78.883,15.443c-0.076,1.371-6.16,8.367-13.121,13.676
	c-5.63,4.295-13.432,7.219-17.138,7.818c-7.772,1.257-16.326,0.78-25.56,0.188c-5.164-0.33-21.491-5.38-20.146-3.317
	c1.06,1.614,8.313,6.662,17.188,14.128c7.804,6.56,16.842,15.704,25.757,23.036c15.941,13.111,32.484,20.999,31.558,21.895
	c-5.263,5.066-19.901,8.667-32.058,5.087c-5.223-1.537-8.47-3.381-14.169-7.322c-4.404-3.044-10.533-8.973-14.171-12.252
	c-6.896-6.224-13.375-11.374-17.442-14.938c0.015,2.8,2.169,5.802,4.8,10.643c32.974,61.563,70.536,123.96,70.536,123.96
	c-31.571,1.741-49.409-30.362-64.596-50.152c-19.324-25.188-14.91-19.917-19.092-25.602c-4.177-5.682,31.397,130.668,31.516,128.133
	c0.413,6.106,15.563,45.522,28.173,78.679c-14.896-1.201-25.59-9.854-33.602-17.947c-5.944-8.813-10.887-17.766-14.604-27.129
	c-6.784-15.799-11.696-30.924-16.646-45.371c-10.357-30.265-17.594-56.98-24.889-75.876l0.232,39.294
	c-0.879,9.387,2.207,52.369,4.116,65.523c4.647,31.982,5.771,50.975,9.634,68.394c-49.033-7.63-61.65-105.571-60.521-145.872
	c-4.032,30.143-8.064,59.414-12.104,85.146c-9.802-5.473-15.334-11.1-17.738-22.119c-2.155-30.482-4.729-56.693-6.887-82.436
	l-20.242-39.23L351.065,203.278L351.065,203.278z"/>
<path id="path14351" inkscape:connector-curvature="0" fill="#E20909" stroke="#000000" stroke-width="2" stroke-linejoin="round" d="
	M248.931,203.278l-3.965-2.713c-1.878,0.938-26.921-1.669-33.494-3.965c-6.574-2.296-19.653-11.726-20.973-12.938
	c-5.297-4.88-13.892-16.333-14.724-17.739c-3.312-5.592-8.379-17.231-9.25-23.599c-0.875-6.391-1.763-16.688-1.555-17.209
	c0.208-0.521,0.782-2.418,2.781-3.015c2.25-0.672,11.887-3.585,13.233-4.98c1.078-1.116,12.333-10,14.055-16.003
	c1.473-5.142,1.528-8.754,1.528-12.51c0-3.757-0.018-9.48-1.479-13.967c-1.46-4.487-5.616-8.485-11.251-12.658
	c-5.634-4.174-14.521-4.991-14.521-4.991l-47.703,0.813c-0.048,0.009-31.666-0.6-55.614-10.552
	c16.123,45.504,52.96,36.557,58.763,39.165c-50.455,15.681-73.961,16.786-78.883,15.443c0.077,1.371,6.162,8.367,13.122,13.676
	c5.63,4.295,13.431,7.219,17.138,7.818c7.773,1.257,16.326,0.78,25.556,0.188c5.164-0.33,21.495-5.38,20.147-3.317
	c-1.058,1.614-8.313,6.662-17.19,14.128c-7.8,6.56-16.838,15.704-25.753,23.036c-15.944,13.111-32.487,20.999-31.557,21.894
	c5.263,5.066,19.903,8.667,32.058,5.087c5.219-1.537,8.467-3.381,14.167-7.322c4.406-3.044,10.535-8.973,14.169-12.252
	c6.896-6.224,13.375-11.374,17.446-14.938c-0.013,2.8-2.168,5.802-4.8,10.643C87.41,222.063,49.847,284.46,49.847,284.46
	c31.573,1.741,49.409-30.362,64.594-50.152c19.326-25.188,14.912-19.917,19.089-25.602c4.179-5.682-31.396,130.668-31.511,128.133
	c-0.413,6.106-15.563,45.522-28.173,78.679c14.898-1.201,25.59-9.854,33.599-17.947c5.947-8.813,10.886-17.766,14.608-27.129
	c6.785-15.799,11.697-30.924,16.643-45.371c10.36-30.266,17.593-56.98,24.887-75.876l-0.232,39.294
	c0.879,9.387-2.207,52.369-4.12,65.522c-4.648,31.983-5.771,50.976-9.63,68.395c49.033-7.63,61.65-105.571,60.52-145.872
	c4.034,30.142,8.068,59.414,12.104,85.145c9.799-5.471,15.334-11.098,17.738-22.117c2.157-30.482,4.729-56.693,6.887-82.436
	l20.243-39.23L248.931,203.278L248.931,203.278z"/>
<path id="path23256" inkscape:connector-curvature="0" fill="#E20909" stroke="#000000" stroke-width="2" stroke-linecap="round" stroke-linejoin="round" d="
	M73.474,112.309c17.575,1.681,36.346-2.023,55.484-7.378"/>
<path id="path23258" inkscape:connector-curvature="0" fill="#E20909" stroke="#000000" stroke-width="2" stroke-linecap="round" stroke-linejoin="round" d="
	M124.236,133.558c-37.542,37.872-44.095,40.433-48.4,40.433"/>
<path id="path23260" inkscape:connector-curvature="0" fill="#E20909" stroke="#000000" stroke-width="2" stroke-linecap="round" stroke-linejoin="round" d="
	M74.064,264.89c14.179-21.115,21.834-28.769,59.025-97.395"/>
<path id="path23262" inkscape:connector-curvature="0" fill="#E20909" stroke="#000000" stroke-width="2" stroke-linecap="round" stroke-linejoin="round" d="
	M105.642,369.365c15.005-37.672,28.782-97.86,43.088-148.804"/>
<path id="path23264" inkscape:connector-curvature="0" fill="#E20909" stroke="#000000" stroke-width="2" stroke-linecap="round" stroke-linejoin="round" d="
	M172.932,377.629c3.864-17.313,9.368-74.749,14.756-132.454"/>
<path id="path23266" inkscape:connector-curvature="0" fill="#E20909" stroke="#000000" stroke-width="2" stroke-linecap="round" stroke-linejoin="round" d="
	M225.759,333.064v-70.239"/>
<path id="path25925" inkscape:connector-curvature="0" fill="#E20909" stroke="#000000" stroke-width="2" stroke-linecap="round" stroke-linejoin="round" d="
	M142.828,135.034c-10.691,5.055-24.808,9.953-2.066,16.527c-14.891,8.051-16.398,14.763,7.968,18.888
	c-4.008-0.806-42.655,17.675,5.313,13.871c-29.392,25.958-8.256,23.327,5.017,16.527c-25.653,18.853-4.555,28.863,12.69,14.756
	c-22.639,35.305,10.771,32.115,16.526,11.51c-7.809,22.464,13.337,44.828,23.021,5.903c-2.014,42.855,21.846,30.401,25.971,5.604"/>
<path id="path25927" inkscape:connector-curvature="0" fill="#E20909" stroke="#000000" stroke-width="2" stroke-linecap="round" stroke-linejoin="round" d="
	M142.238,144.183h-4.132"/>
<path id="path25929" inkscape:connector-curvature="0" fill="#E20909" stroke="#000000" stroke-width="2" stroke-linecap="round" stroke-linejoin="round" d="
	M144.599,159.234l-8.264,2.361"/>
<path id="path25931" inkscape:connector-curvature="0" fill="#E20909" stroke="#000000" stroke-width="2" stroke-linecap="round" stroke-linejoin="round" d="
	M150.797,176.057l-9.444,2.358"/>
<path id="path25933" inkscape:connector-curvature="0" fill="#E20909" stroke="#000000" stroke-width="2" stroke-linecap="round" stroke-linejoin="round" d="
	M156.995,191.403l-7.969,5.017"/>
<path id="path25935" inkscape:connector-curvature="0" fill="#E20909" stroke="#000000" stroke-width="2" stroke-linecap="round" stroke-linejoin="round" d="
	M165.553,204.979l-9.149,10.034"/>
<path id="path25937" inkscape:connector-curvature="0" fill="#E20909" stroke="#000000" stroke-width="2" stroke-linecap="round" stroke-linejoin="round" d="
	M180.309,218.263l-7.083,12.688"/>
<path id="path25939" inkscape:connector-curvature="0" fill="#E20909" stroke="#000000" stroke-width="2" stroke-linecap="round" stroke-linejoin="round" d="
	M201.559,227.704l-5.606,16.822"/>
<path id="path25941" inkscape:connector-curvature="0" fill="#E20909" stroke="#000000" stroke-width="2" stroke-linecap="round" stroke-linejoin="round" d="
	M224.578,236.558l-2.951,13.576"/>
<path id="path23254" inkscape:connector-curvature="0" fill="#E20909" stroke="#000000" stroke-width="2" stroke-linecap="round" stroke-linejoin="round" d="
	M144.599,74.828c-19.093-2.727-42.387-3.703-52.828-10.035"/>
<path id="path26848" inkscape:connector-curvature="0" fill="#E20909" stroke="#000000" stroke-width="2" stroke-linecap="round" stroke-linejoin="round" d="
	M527.084,112.309c-17.574,1.681-36.347-2.023-55.479-7.378"/>
<path id="path26850" inkscape:connector-curvature="0" fill="#E20909" stroke="#000000" stroke-width="2" stroke-linecap="round" stroke-linejoin="round" d="
	M476.322,133.558c37.541,37.872,44.095,40.433,48.396,40.433"/>
<path id="path26852" inkscape:connector-curvature="0" fill="#E20909" stroke="#000000" stroke-width="2" stroke-linecap="round" stroke-linejoin="round" d="
	M526.493,264.89c-14.179-21.115-21.835-28.769-59.024-97.395"/>
<path id="path26854" inkscape:connector-curvature="0" fill="#E20909" stroke="#000000" stroke-width="2" stroke-linecap="round" stroke-linejoin="round" d="
	M494.914,369.365c-15.005-37.672-28.781-97.86-43.089-148.804"/>
<path id="path26856" inkscape:connector-curvature="0" fill="#E20909" stroke="#000000" stroke-width="2" stroke-linecap="round" stroke-linejoin="round" d="
	M427.625,377.629c-3.863-17.313-9.366-74.749-14.756-132.454"/>
<path id="path26858" inkscape:connector-curvature="0" fill="#E20909" stroke="#000000" stroke-width="2" stroke-linecap="round" stroke-linejoin="round" d="
	M374.799,333.064v-70.239"/>
<path id="path26862" inkscape:connector-curvature="0" fill="#E20909" stroke="#000000" stroke-width="2" stroke-linecap="round" stroke-linejoin="round" d="
	M457.729,135.034c10.688,5.055,24.807,9.953,2.063,16.527c14.896,8.051,16.398,14.763-7.969,18.888
	c4.008-0.806,42.656,17.675-5.313,13.871c29.395,25.958,8.26,23.327-5.019,16.527c25.653,18.853,4.556,28.863-12.689,14.756
	c22.643,35.305-10.771,32.115-16.523,11.51c7.81,22.464-13.338,44.828-23.021,5.903c2.018,42.855-21.848,30.401-25.973,5.604"/>
<path id="path26864" inkscape:connector-curvature="0" fill="#E20909" stroke="#000000" stroke-width="2" stroke-linecap="round" stroke-linejoin="round" d="
	M458.319,144.183h4.132"/>
<path id="path26866" inkscape:connector-curvature="0" fill="#E20909" stroke="#000000" stroke-width="2" stroke-linecap="round" stroke-linejoin="round" d="
	M455.957,159.234l8.265,2.361"/>
<path fill="#FCEF3C" stroke="#000000" stroke-width="2" stroke-linejoin="round" d="M244.034,231.457
	c-53.461-2.03-96.156-44.42-96.156-96.423c0-10.697,1.822-20.979,5.163-30.592c-1.191,0.654-2.56,1.027-4.014,1.027
	c-4.613,0-8.354-3.74-8.354-8.354c0-4.614,3.74-8.354,8.354-8.354c2.602,0,4.922,1.189,6.453,3.054l0.481-0.396
	c-1.273-1.463-2.058-3.361-2.058-5.455c0-4.612,3.74-8.354,8.354-8.354s8.354,3.74,8.354,8.354c0,3.969-2.77,7.283-6.479,8.136
	l0.054,0.344c0.446-0.074,0.899-0.125,1.367-0.125c4.613,0,8.354,3.74,8.354,8.354c0,4.614-3.74,8.354-8.354,8.354
	c-4.197,0-7.662-3.1-8.254-7.132c-1.581,6.803-2.421,13.876-2.421,21.139c0,49.617,38.867,90.482,88.867,95.893
	C243.737,224.177,243.837,227.691,244.034,231.457z M353.955,231.457c53.461-2.03,96.156-44.42,96.156-96.423
	c0-10.697-1.822-20.979-5.162-30.592c1.191,0.654,2.56,1.027,4.014,1.027c4.613,0,8.354-3.74,8.354-8.354
	c0-4.614-3.74-8.354-8.354-8.354c-2.602,0-4.924,1.189-6.453,3.054l-0.48-0.396c1.272-1.463,2.059-3.361,2.059-5.455
	c0-4.612-3.739-8.354-8.354-8.354s-8.354,3.74-8.354,8.354c0,3.969,2.771,7.283,6.479,8.136l-0.056,0.344
	c-0.444-0.074-0.898-0.125-1.366-0.125c-4.613,0-8.354,3.74-8.354,8.354c0,4.614,3.74,8.354,8.354,8.354
	c4.196,0,7.661-3.1,8.255-7.132c1.581,6.803,2.421,13.876,2.421,21.139c0,49.617-38.867,90.482-88.867,95.893
	C354.252,224.177,354.153,227.691,353.955,231.457z"/>
<path id="path26868" inkscape:connector-curvature="0" fill="#E20909" stroke="#000000" stroke-width="2" stroke-linecap="round" stroke-linejoin="round" d="
	M449.761,176.057l9.443,2.358"/>
<path id="path26870" inkscape:connector-curvature="0" fill="#E20909" stroke="#000000" stroke-width="2" stroke-linecap="round" stroke-linejoin="round" d="
	M443.563,191.403l7.968,5.017"/>
<path id="path26872" inkscape:connector-curvature="0" fill="#E20909" stroke="#000000" stroke-width="2" stroke-linecap="round" stroke-linejoin="round" d="
	M435.004,204.979l9.148,10.034"/>
<path id="path26874" inkscape:connector-curvature="0" fill="#E20909" stroke="#000000" stroke-width="2" stroke-linecap="round" stroke-linejoin="round" d="
	M420.248,218.263l7.082,12.688"/>
<path id="path26876" inkscape:connector-curvature="0" fill="#E20909" stroke="#000000" stroke-width="2" stroke-linecap="round" stroke-linejoin="round" d="
	M398.998,227.704l5.607,16.822"/>
<path id="path26878" inkscape:connector-curvature="0" fill="#E20909" stroke="#000000" stroke-width="2" stroke-linecap="round" stroke-linejoin="round" d="
	M375.979,236.558l2.948,13.576"/>
<path id="path28728" inkscape:connector-curvature="0" fill="#E20909" stroke="#000000" stroke-width="2" stroke-linecap="round" stroke-linejoin="round" d="
	M455.367,74.828c19.094-2.727,42.388-3.703,52.828-10.035"/>
<path id="path32275" inkscape:connector-curvature="0" fill="#E20909" stroke="#000000" stroke-width="2" stroke-linejoin="round" d="
	M302.526,93.109c3.926,1.284,5.919-12.794-4.382-10.02c-29.643,9.787-49.105,14.729-51.754-3.965
	c-1.415-5.109-10.584-8.047-8.139,2.087C251.611,112.77,275.239,86.447,302.526,93.109L302.526,93.109z"/>
<path id="path31388" inkscape:connector-curvature="0" fill="#FCEF3C" stroke="#000000" stroke-width="2" stroke-linejoin="round" d="
	M325.69,70.988l-16.068,45.077c-24.906-11.67-40.271-14.692-47.371-10.229c4.426-5.708,10.124-16.524,40.901-3.965
	c-4.665-13.817-39.975-28.539-46.537-13.354c-9.118-21.499,0.425-31.299,28.591-29.425L325.69,70.988L325.69,70.988z"/>
<path id="path13458" inkscape:connector-curvature="0" fill="#E20909" stroke="#000000" stroke-width="2" stroke-linejoin="round" d="
	M259.328,188.061c-26.709,8.527-5.582,4.436-7.009,6.293c-16.683,5.343-5.904,65.993,5.902,149.63
	c-2.263,9.479-4.525,14.301-6.788,19.183c-3.873,5.097-11.614,15.267-23.02,24.2l4.427,2.361l-6.198,6.491
	c10.009,6.783,25.594,2.979,28.627,23.021c0.512-16.417,3.591-6.943,7.083-3.247c0.563-23.758,10.487-32.315,18.593-42.498
	c0.633,12.104,6.697,34.146-11.215,54.012c-14.005,6.713-28.333,4.693-41.612,30.985c9.15-2.357,7.898-7.634,34.824-5.02
	l17.117-10.032c-3.532,12.459,4.087,23.617-40.728,44.271c-31.685,7.239-53.896,20.799-64.337,42.2
	c17.301-8.597,35.593-14.088,59.024-18.594c24.769-13.741,30.255-22.472,42.793-35.12c-3.563,9.602-5.503,17.898-12.689,30.396
	c-15.077,15.077-35.842,22.642-30.104,65.226c18.987-30.448,33.148-26.047,53.418-97.979c3.544,15.73,7.302,30.936,4.723,61.979
	c-4.623,14.795-4.035,27.506-19.479,46.63l14.166-3.541l13.146,39.665l13.148-39.665l14.166,3.541
	c-15.443-19.124-14.855-31.835-19.479-46.63c-2.58-31.043,1.179-46.243,4.723-61.979c20.271,71.938,34.436,67.531,53.418,97.979
	c5.738-42.584-15.021-50.146-30.104-65.226c-7.188-12.498-9.128-20.8-12.689-30.396c12.538,12.648,18.024,21.379,42.793,35.12
	c23.437,4.506,41.729,9.997,59.024,18.594c-10.439-21.401-32.652-34.961-64.337-42.2c-44.814-20.649-37.194-31.813-40.729-44.271
	l17.117,10.032c26.926-2.614,25.674,2.657,34.824,5.02c-13.279-26.292-27.607-24.272-41.612-30.985
	c-17.912-19.861-11.849-41.902-11.216-54.012c8.106,10.184,18.03,18.74,18.594,42.498c3.492-3.696,6.57-13.17,7.083,3.247
	c3.034-20.04,18.618-16.229,28.628-23.021l-6.194-6.492l4.427-2.361c-11.404-8.938-19.146-19.104-23.021-24.2
	c-2.265-4.882-4.523-9.694-6.786-19.183c11.809-83.637,22.586-144.287,5.898-149.63c-3.649-1.956,3.623,1.365-5.047-2.624
	c19.231,3.854,10.567,1.965,4.557-2.626c-17.82-17.521-3.523-7.77,1.551-7.106c-12.85-22.395-6.249-34.971-3.638-43.604
	l3.969,10.852l4.714-20.919l8.852,7.98c-1.787-9.281-3.379-18.899-7.834-23.607c7.434,1.688,12.707,1.583,13.616,1.137
	c1.936-0.942-7.822-5.052-8.189-11.777c6.338,0.716,9.39-0.337,14.216-5.705c1.477-1.643-6.889,1.755-6.526,0.687
	c-18.438-17.147-1.425-8.953-0.732-12.36c-26.131-14.287-5.888-9.634-7.183-13.773c-19.42-8.586-12.165-4.049-4.233-14.964
	c-4.45,1.268-10.797,3.041-19.006,1.695c0.063-1.646-14.606-5.646-37.507-6.106c-7.998-0.161-13.3,0.461-13.83,8.402
	c29.392,34.502,29.146,48.021,14.19,51.128c3.547,7.082,6.056,11.217,4.983,13.437c-1.797,3.735-11.415,6.989-32.391,18.852
	c9.875,3.43,31.381-7.646,0.091,12.877c-20.453,9.669-4.516,5.851,2.27,5.548c-5.02,7.455-10.731,14.847-20.034,21.912
	L259.328,188.061L259.328,188.061z"/>
<path id="path7579" inkscape:connector-curvature="0" sodipodi:nodetypes="csssc" fill="#FFFFFF" stroke="#000000" stroke-width="2" stroke-miterlimit="10" d="
	M312.671,71.409c0,3.236-2.626,5.861-5.86,5.861c-3.232,0-4.438-2.956-5.862-5.861c-3.776-7.696,1.626-7.008,5.862-5.863
	C309.934,66.39,312.671,68.171,312.671,71.409z"/>
<path id="path13095" sodipodi:type="arc" sodipodi:cy="68.019043" sodipodi:cx="305.82367" sodipodi:rx="1.5467961" sodipodi:ry="1.5467961" d="
	M306.989,71.584c0,1.31-1.061,2.371-2.371,2.371c-1.31,0-2.369-1.06-2.369-2.371s1.061-2.37,2.369-2.37
	C305.93,69.214,306.989,70.274,306.989,71.584z"/>
<g id="layer4-7" inkscape:label="Meubles">
</g>
<g id="layer2-6" inkscape:label="Reflet final">
</g>
<g id="layer1-2" inkscape:label="Contour final">
</g>
<g id="layer4" inkscape:label="Meubles" inkscape:groupmode="layer">
</g>
<g id="layer2" inkscape:label="Reflet final" inkscape:groupmode="layer" sodipodi:insensitive="true">
	
		<radialGradient id="path2875_1_" cx="-477.0828" cy="1212.1172" r="299.9993" gradientTransform="matrix(1.3532 0 0 1.3489 867.6189 -1415.4546)" gradientUnits="userSpaceOnUse">
		<stop  offset="0" style="stop-color:#FFFFFF;stop-opacity:0.3137"/>
		<stop  offset="0.19" style="stop-color:#FFFFFF;stop-opacity:0.251"/>
		<stop  offset="0.6" style="stop-color:#6B6B6B;stop-opacity:0.1255"/>
		<stop  offset="1" style="stop-color:#000000;stop-opacity:0.1255"/>
	</radialGradient>
	
		<path id="path2875" inkscape:export-ydpi="144" inkscape:export-xdpi="144" sodipodi:nodetypes="cccccc" fill="url(#path2875_1_)" d="
		M300,658.5c0,0,298.5-112.317,298.5-397.771c0-285.451,0-258.551,0-258.551H1.5v258.551C1.5,546.18,300,658.5,300,658.5z"/>
</g>
<g id="layer1" inkscape:label="Contour final" inkscape:groupmode="layer" sodipodi:insensitive="true">
	
		<path id="path1411" inkscape:export-ydpi="144" inkscape:export-xdpi="144" sodipodi:nodetypes="cccccc" fill="none" stroke="#000000" stroke-width="3" d="
		M300,658.5c0,0-298.5-112.317-298.5-397.771c0-285.454,0-258.552,0-258.552h597v258.552C598.5,546.18,300,658.5,300,658.5z"/>
</g>
</svg>
